<svg version="1.1" id="Layer_1" xmlns="http://www.w3.org/2000/svg" xmlns:xlink="http://www.w3.org/1999/xlink" x="0px" y="0px"
	 width="100%" viewBox="0 0 210 176" enable-background="new 0 0 210 176" xml:space="preserve">
<path fill="#000000" opacity="1.000000" stroke="none" 
	d="
M128.000000,177.000000 
	C85.360657,177.000000 43.221317,177.000000 1.081975,177.000000 
	C1.054651,176.860764 1.003384,176.721542 1.003376,176.582306 
	C0.999943,118.120216 1.000000,59.658119 1.000000,1.098013 
	C70.889175,1.098013 140.778534,1.098013 210.833954,1.098013 
	C210.833954,59.666286 210.833954,118.333099 210.833954,177.000000 
	C183.464325,177.000000 155.982162,177.000000 128.000000,177.000000 
M16.309185,22.018610 
	C15.839531,22.679289 15.369876,23.339966 14.987911,23.995319 
	C14.987911,23.995319 14.982460,23.907637 14.340386,24.200247 
	C13.513455,25.782005 12.686523,27.363766 11.292150,29.221977 
	C11.252733,29.831102 11.213316,30.440226 11.031228,31.970795 
	C11.017895,72.165276 10.994422,112.359756 11.030443,152.554199 
	C11.031802,154.071274 11.609786,155.587845 11.959804,157.851379 
	C13.322124,159.640823 14.684445,161.430267 16.201223,163.713425 
	C16.731482,164.130264 17.261738,164.547119 18.049822,165.456451 
	C18.367640,165.576981 18.685457,165.697525 19.573143,166.087799 
	C20.310184,166.368469 21.047226,166.649139 22.243856,167.714966 
	C23.061495,167.813431 23.879114,167.997940 24.696770,167.998108 
	C78.216934,168.008774 131.737106,168.012466 185.257217,167.955795 
	C186.596161,167.954376 187.934372,167.271713 189.955093,166.977356 
	C192.273972,165.094086 194.592850,163.210815 197.526001,160.965515 
	C197.711548,160.306671 197.897095,159.647842 198.024017,159.016052 
	C198.024017,159.016052 198.066238,159.064880 198.623077,158.858566 
	C198.757584,158.300003 198.892090,157.741440 199.780090,156.706635 
	C199.819687,149.973526 199.859268,143.240417 199.891632,136.444321 
	C199.891632,136.444321 199.832901,136.468216 200.582672,135.898529 
	C200.709595,126.293831 200.854095,116.689240 200.914520,107.084122 
	C200.917725,106.573250 200.211136,106.057922 199.900177,105.553993 
	C199.900177,105.553993 199.896164,105.488258 199.984848,104.474365 
	C199.992935,89.018478 200.031677,73.562454 199.961044,58.106926 
	C199.954071,56.583145 199.277054,55.062435 198.968094,53.510201 
	C198.968094,53.510201 198.911011,53.480137 198.978058,52.704613 
	C198.637833,52.328236 198.297607,51.951862 197.991974,51.522160 
	C197.991974,51.522160 197.929459,51.533672 197.987717,50.762856 
	C195.360657,47.362926 193.700974,42.741585 187.708832,42.233082 
	C157.155228,42.208630 126.601616,42.184174 95.337372,41.985115 
	C93.229362,40.957142 91.121346,39.929165 89.019142,38.980484 
	C89.019142,38.980484 89.098419,38.974396 88.845100,38.374393 
	C87.570816,37.220001 86.296532,36.065609 85.019852,34.980175 
	C85.019852,34.980175 85.088821,34.978024 84.844879,34.380920 
	C83.465424,33.053886 82.085960,31.726854 80.167458,30.449877 
	C80.183350,30.629627 80.199249,30.809380 80.508652,30.276386 
	C80.004791,29.820475 79.500931,29.364563 79.001228,28.998394 
	C79.001228,28.998394 79.090973,28.994213 78.810623,28.376272 
	C76.209633,26.210369 73.608635,24.044466 70.921280,21.454597 
	C70.767319,21.170975 70.528999,21.031603 69.906708,20.471153 
	C69.016159,19.981503 68.125603,19.491854 66.751114,18.244267 
	C52.030777,18.164585 37.310455,18.069914 22.590044,18.052515 
	C21.903351,18.051702 21.215843,18.740837 20.524126,19.089146 
	C20.524126,19.089146 20.527020,19.083574 19.805492,19.031767 
	C18.841621,20.019361 17.877750,21.006954 17.002321,21.995956 
	C17.002321,21.995956 17.003717,21.907515 16.309185,22.018610 
z"/>
<path fill="#19AEC7" opacity="1.000000" stroke="none" 
	d="
M199.832901,136.468216 
	C199.832901,136.468216 199.891632,136.444321 199.626099,136.847961 
	C199.178787,142.755386 198.996994,148.259186 198.568787,153.962006 
	C198.237000,155.795654 198.151627,157.430267 198.066238,159.064880 
	C198.066238,159.064880 198.024017,159.016052 197.775406,159.202606 
	C197.321762,160.035278 197.116745,160.681412 196.911713,161.327530 
	C194.592850,163.210815 192.273972,165.094086 189.121597,166.923431 
	C181.640976,166.870728 174.993866,166.870865 168.346741,166.873383 
	C119.492584,166.891907 70.638428,166.910950 21.784267,166.929810 
	C21.047226,166.649139 20.310184,166.368469 19.095057,165.798935 
	C18.330517,165.345352 18.055525,165.163315 17.791996,164.963959 
	C17.261738,164.547119 16.731482,164.130264 16.087280,163.096985 
	C14.950146,160.642807 13.926955,158.805069 12.895864,156.522278 
	C12.713146,114.358376 12.538331,72.639503 12.510380,30.718555 
	C12.808341,30.032295 12.959437,29.548119 13.297487,28.774153 
	C13.983781,26.958788 14.483120,25.433212 14.982460,23.907637 
	C14.982460,23.907637 14.987911,23.995319 15.242012,23.895691 
	C15.998649,23.166546 16.501183,22.537031 17.003717,21.907515 
	C17.003717,21.907515 17.002321,21.995956 17.309879,21.944496 
	C18.587297,20.956551 19.557158,20.020061 20.527020,19.083574 
	C20.527020,19.083574 20.524126,19.089146 20.899897,19.181047 
	C21.782639,19.257792 22.289612,19.242634 22.964672,19.292145 
	C23.475508,19.283913 23.818253,19.211014 24.445951,19.150681 
	C25.110703,19.146627 25.490499,19.130009 26.126507,19.245632 
	C27.296656,19.288292 28.210594,19.198709 29.585026,19.128117 
	C40.932796,19.196489 51.820072,19.245876 62.970825,19.559811 
	C65.558311,20.228401 67.882317,20.632441 70.206322,21.036482 
	C70.528999,21.031603 70.767319,21.170975 71.067001,21.998848 
	C73.838806,24.693472 76.464890,26.843843 79.090973,28.994213 
	C79.090973,28.994213 79.001228,28.998394 79.097763,29.234964 
	C79.534576,29.977400 79.874863,30.483265 80.215149,30.989130 
	C80.199249,30.809380 80.183350,30.629627 80.378883,30.797886 
	C82.089813,32.423271 83.589317,33.700649 85.088821,34.978024 
	C85.088821,34.978024 85.019852,34.980175 85.032173,35.312965 
	C86.395805,36.755306 87.747108,37.864849 89.098419,38.974396 
	C89.098419,38.974396 89.019142,38.980484 89.088974,39.295979 
	C91.448303,40.738289 93.737801,41.865108 96.439636,43.030785 
	C98.496078,43.157993 100.140167,43.246342 102.040268,43.617294 
	C104.216995,44.228336 106.137016,44.837666 108.058563,44.842499 
	C131.798248,44.902233 155.538254,44.906975 179.277954,44.845524 
	C185.462494,44.829514 191.707855,44.291092 195.712830,50.553211 
	C196.075684,51.120529 197.173141,51.218006 197.929459,51.533676 
	C197.929459,51.533672 197.991974,51.522160 198.032990,51.911465 
	C198.352997,52.693890 198.632004,53.087009 198.911011,53.480133 
	C198.911011,53.480137 198.968094,53.510201 198.925659,53.651394 
	C198.883240,53.792587 198.851944,54.043602 198.564606,54.124474 
	C198.439438,55.567059 198.601624,56.928776 198.746033,58.740555 
	C198.763977,72.551964 198.755081,85.913727 198.882034,99.274193 
	C198.901749,101.348572 199.542572,103.417053 199.896164,105.488258 
	C199.896164,105.488258 199.900177,105.553993 199.761353,106.045715 
	C199.692657,116.514366 199.762787,126.491287 199.832901,136.468216 
M136.009079,141.845078 
	C136.004089,143.222473 135.999100,144.599884 135.668640,146.461868 
	C136.155212,147.307999 136.641800,148.154144 137.408722,149.315506 
	C137.565720,149.562592 137.631760,149.831985 137.501038,150.848145 
	C138.109802,151.474625 138.718567,152.101089 140.205170,152.884277 
	C144.472137,152.930298 148.739090,152.976318 153.493500,153.276672 
	C154.949509,152.124405 156.405502,150.972137 158.601303,149.886597 
	C159.340302,149.960144 160.079285,150.033691 161.146881,150.797592 
	C164.511612,153.708801 175.703568,154.544250 178.651398,151.721054 
	C179.824860,150.597198 179.956329,148.385376 180.598938,145.835739 
	C180.582718,143.334824 180.566483,140.833923 180.842194,137.601944 
	C180.361145,136.245056 179.772888,134.914383 179.432648,133.523071 
	C179.155731,132.390656 178.920685,131.142731 179.109207,130.020309 
	C179.858398,125.559822 181.151550,121.159866 181.531525,116.677162 
	C181.887833,112.473587 179.075668,110.307312 175.049149,110.101944 
	C171.397415,109.915695 167.726486,110.105606 163.529968,109.810791 
	C161.276154,110.631615 159.022354,111.452431 156.067764,111.968750 
	C151.046799,111.312096 146.025848,110.655434 140.607742,109.757431 
	C140.056122,110.154808 139.504486,110.552185 138.564178,111.391388 
	C138.372375,111.926994 138.180557,112.462601 137.642227,113.432198 
	C137.505127,113.556580 137.368042,113.680969 136.574081,114.048874 
	C134.294296,118.120781 133.780502,122.125435 137.113052,125.818176 
	C137.113052,125.818176 137.301254,125.806877 137.076721,126.499962 
	C137.819305,128.257614 138.561905,130.015274 139.336899,131.849640 
	C138.581482,132.875320 137.802338,133.933228 136.553314,135.482834 
	C136.366486,137.328140 136.179657,139.173431 136.009079,141.845078 
z"/>
<path fill="#5DB8C9" opacity="1.000000" stroke="none" 
	d="
M197.958588,51.148266 
	C197.173141,51.218006 196.075684,51.120529 195.712830,50.553211 
	C191.707855,44.291092 185.462494,44.829514 179.277954,44.845524 
	C155.538254,44.906975 131.798248,44.902233 108.058563,44.842499 
	C106.137016,44.837666 104.216995,44.228336 102.520203,43.527359 
	C131.222839,43.101616 159.701553,43.048416 188.180252,42.995220 
	C193.700974,42.741585 195.360657,47.362926 197.958588,51.148266 
z"/>
<path fill="#6DC4D4" opacity="1.000000" stroke="none" 
	d="
M22.014061,167.322388 
	C70.638428,166.910950 119.492584,166.891907 168.346741,166.873383 
	C174.993866,166.870865 181.640976,166.870728 188.780518,166.888138 
	C187.934372,167.271713 186.596161,167.954376 185.257217,167.955795 
	C131.737106,168.012466 78.216934,168.008774 24.696770,167.998108 
	C23.879114,167.997940 23.061495,167.813431 22.014061,167.322388 
z"/>
<path fill="#86CDD7" opacity="1.000000" stroke="none" 
	d="
M12.363515,30.920637 
	C12.538331,72.639503 12.713146,114.358376 12.648237,156.545197 
	C12.408513,157.013168 11.919065,157.104645 11.919065,157.104645 
	C11.609786,155.587845 11.031802,154.071274 11.030443,152.554199 
	C10.994422,112.359756 11.017895,72.165276 11.401081,31.488003 
	C11.968460,30.977020 12.165987,30.948830 12.363515,30.920637 
z"/>
<path fill="#97D2DD" opacity="1.000000" stroke="none" 
	d="
M187.944550,42.614151 
	C159.701553,43.048416 131.222839,43.101616 102.264206,43.244751 
	C100.140167,43.246342 98.496078,43.157993 96.446693,42.822784 
	C96.041405,42.575920 96.048004,42.159718 96.048004,42.159718 
	C126.601616,42.184174 157.155228,42.208630 187.944550,42.614151 
z"/>
<path fill="#79C0CE" opacity="1.000000" stroke="none" 
	d="
M199.940506,104.981308 
	C199.542572,103.417053 198.901749,101.348572 198.882034,99.274193 
	C198.755081,85.913727 198.763977,72.551964 198.802536,58.314117 
	C198.868515,56.306274 198.860229,55.174938 198.851944,54.043602 
	C198.851944,54.043602 198.883240,53.792587 198.897125,53.666443 
	C199.277054,55.062435 199.954071,56.583145 199.961044,58.106926 
	C200.031677,73.562454 199.992935,89.018478 199.940506,104.981308 
z"/>
<path fill="#83C8D3" opacity="1.000000" stroke="none" 
	d="
M62.707348,19.295261 
	C51.820072,19.245876 40.932796,19.196489 29.178894,19.079933 
	C27.498280,19.046305 26.684290,19.079847 25.870298,19.113390 
	C25.490499,19.130009 25.110703,19.146627 24.102955,19.150917 
	C23.248863,19.168219 23.022724,19.197847 22.796583,19.227476 
	C22.289612,19.242634 21.782639,19.257792 20.902191,19.190796 
	C21.215843,18.740837 21.903351,18.051702 22.590044,18.052515 
	C37.310455,18.069914 52.030777,18.164585 66.539284,18.643539 
	C65.120750,19.126963 63.914051,19.211111 62.707348,19.295261 
z"/>
<path fill="#BCE5ED" opacity="1.000000" stroke="none" 
	d="
M200.207794,136.183380 
	C199.762787,126.491287 199.692657,116.514366 199.728760,106.041054 
	C200.211136,106.057922 200.917725,106.573250 200.914520,107.084122 
	C200.854095,116.689240 200.709595,126.293831 200.207794,136.183380 
z"/>
<path fill="#79C0CE" opacity="1.000000" stroke="none" 
	d="
M198.815201,153.762970 
	C198.996994,148.259186 199.178787,142.755386 199.629730,136.879456 
	C199.859268,143.240417 199.819687,149.973526 199.384644,156.517365 
	C198.931198,155.473068 198.873199,154.618011 198.815201,153.762970 
z"/>
<path fill="#5DB8C9" opacity="1.000000" stroke="none" 
	d="
M78.950798,28.685244 
	C76.464890,26.843843 73.838806,24.693472 71.110184,22.210833 
	C73.608635,24.044466 76.209633,26.210369 78.950798,28.685244 
z"/>
<path fill="#5DBCCB" opacity="1.000000" stroke="none" 
	d="
M11.939434,157.478012 
	C11.919065,157.104645 12.408513,157.013168 12.656139,156.990234 
	C13.926955,158.805069 14.950146,160.642807 16.010052,162.850128 
	C14.684445,161.430267 13.322124,159.640823 11.939434,157.478012 
z"/>
<path fill="#5DB8C9" opacity="1.000000" stroke="none" 
	d="
M95.692688,42.072418 
	C96.048004,42.159718 96.041405,42.575920 96.034348,42.783920 
	C93.737801,41.865108 91.448303,40.738289 89.086075,39.256332 
	C91.121346,39.929165 93.229362,40.957142 95.692688,42.072418 
z"/>
<path fill="#5DB8C9" opacity="1.000000" stroke="none" 
	d="
M62.970825,19.559811 
	C63.914051,19.211111 65.120750,19.126963 66.781250,19.022509 
	C68.125603,19.491854 69.016159,19.981503 70.056519,20.753819 
	C67.882317,20.632441 65.558311,20.228401 62.970825,19.559811 
z"/>
<path fill="#5DB8C9" opacity="1.000000" stroke="none" 
	d="
M84.966850,34.679474 
	C83.589317,33.700649 82.089813,32.423271 80.648407,30.772858 
	C82.085960,31.726854 83.465424,33.053886 84.966850,34.679474 
z"/>
<path fill="#5DB8C9" opacity="1.000000" stroke="none" 
	d="
M14.661423,24.053942 
	C14.483120,25.433212 13.983781,26.958788 12.984724,28.742214 
	C12.276535,28.981884 12.068064,28.963703 11.859592,28.945524 
	C12.686523,27.363766 13.513455,25.782005 14.661423,24.053942 
z"/>
<path fill="#5DB8C9" opacity="1.000000" stroke="none" 
	d="
M88.971756,38.674393 
	C87.747108,37.864849 86.395805,36.755306 85.033371,35.278488 
	C86.296532,36.065609 87.570816,37.220001 88.971756,38.674393 
z"/>
<path fill="#5DB8C9" opacity="1.000000" stroke="none" 
	d="
M198.568787,153.962006 
	C198.873199,154.618011 198.931198,155.473068 199.007904,156.755493 
	C198.892090,157.741440 198.757584,158.300003 198.344666,158.961731 
	C198.151627,157.430267 198.237000,155.795654 198.568787,153.962006 
z"/>
<path fill="#5DB8C9" opacity="1.000000" stroke="none" 
	d="
M20.166256,19.057671 
	C19.557158,20.020061 18.587297,20.956551 17.265657,21.943794 
	C17.877750,21.006954 18.841621,20.019361 20.166256,19.057671 
z"/>
<path fill="#5DBCCB" opacity="1.000000" stroke="none" 
	d="
M11.575871,29.083752 
	C12.068064,28.963703 12.276535,28.981884 12.797771,29.032003 
	C12.959437,29.548119 12.808341,30.032295 12.510380,30.718555 
	C12.165987,30.948830 11.968460,30.977020 11.472416,31.027281 
	C11.213316,30.440226 11.252733,29.831102 11.575871,29.083752 
z"/>
<path fill="#5DB8C9" opacity="1.000000" stroke="none" 
	d="
M16.656452,21.963062 
	C16.501183,22.537031 15.998649,23.166546 15.198168,23.898352 
	C15.369876,23.339966 15.839531,22.679289 16.656452,21.963062 
z"/>
<path fill="#5DB8C9" opacity="1.000000" stroke="none" 
	d="
M80.361900,30.632759 
	C79.874863,30.483265 79.534576,29.977400 79.095680,29.190094 
	C79.500931,29.364563 80.004791,29.820475 80.361900,30.632759 
z"/>
<path fill="#5DB8C9" opacity="1.000000" stroke="none" 
	d="
M197.218857,161.146515 
	C197.116745,160.681412 197.321762,160.035278 197.804718,159.189087 
	C197.897095,159.647842 197.711548,160.306671 197.218857,161.146515 
z"/>
<path fill="#5DBCCB" opacity="1.000000" stroke="none" 
	d="
M17.920908,165.210205 
	C18.055525,165.163315 18.330517,165.345352 18.810123,165.664062 
	C18.685457,165.697525 18.367640,165.576981 17.920908,165.210205 
z"/>
<path fill="#5DB8C9" opacity="1.000000" stroke="none" 
	d="
M198.944534,53.092373 
	C198.632004,53.087009 198.352997,52.693890 198.015686,51.938126 
	C198.297607,51.951862 198.637833,52.328236 198.944534,53.092373 
z"/>
<path fill="#F2FCFD" opacity="1.000000" stroke="none" 
	d="
M137.606857,150.123672 
	C137.631760,149.831985 137.565720,149.562592 137.392838,148.802567 
	C137.358261,147.540680 137.339554,146.791748 137.480988,145.752991 
	C137.536102,143.961105 137.431107,142.459015 137.355103,140.592712 
	C137.402863,139.256668 137.421616,138.284851 137.744522,137.135864 
	C143.859634,132.217621 151.477158,132.769791 156.487320,138.710144 
	C156.465576,141.608749 156.446930,144.092682 156.183578,146.774963 
	C155.575760,147.938354 155.212677,148.903412 154.845154,149.894043 
	C154.840714,149.919617 154.851913,149.869659 154.446075,149.935272 
	C149.015900,150.175873 143.991547,150.350891 138.756470,150.403549 
	C138.256165,150.089294 137.943207,150.036774 137.606857,150.123672 
z"/>
<path fill="#F1FCFC" opacity="1.000000" stroke="none" 
	d="
M137.230942,113.805351 
	C137.368042,113.680969 137.505127,113.556580 138.235931,113.208870 
	C145.103058,111.912971 151.596481,109.621964 156.620895,116.230408 
	C156.748703,116.285995 156.872421,116.037422 156.785065,116.366486 
	C156.768433,117.139587 156.839172,117.583618 156.763550,118.408188 
	C156.718185,119.853607 156.819138,120.918480 156.804016,122.320572 
	C156.637024,123.368431 156.586136,124.079079 156.245911,124.959106 
	C151.233826,130.324966 143.556046,130.604172 137.301254,125.806877 
	C137.301254,125.806877 137.113052,125.818176 137.201675,125.482346 
	C137.270508,121.366119 137.250717,117.585739 137.230942,113.805351 
z"/>
<path fill="#EFFBFC" opacity="1.000000" stroke="none" 
	d="
M180.550262,138.333008 
	C180.566483,140.833923 180.582718,143.334824 180.290726,146.435455 
	C176.115768,152.164505 168.873001,152.956039 161.699554,148.566803 
	C161.780075,144.074005 161.875397,140.046066 162.314819,135.844482 
	C169.112076,132.324280 176.012787,133.351089 180.550262,138.333008 
z"/>
<path fill="#81CBD6" opacity="1.000000" stroke="none" 
	d="
M180.696228,137.967468 
	C176.012787,133.351089 169.112076,132.324280 162.063293,135.858917 
	C161.300156,136.033905 161.132645,136.020813 160.983398,135.754211 
	C161.781540,134.173340 162.561371,132.845963 162.928955,132.220306 
	C162.374557,129.725372 161.957291,127.847603 161.867661,126.183807 
	C166.385300,130.527039 171.632141,129.585449 176.265915,128.342056 
	C180.710068,127.149559 179.880753,122.550858 179.693253,118.955025 
	C179.535828,115.936134 179.177841,112.253181 175.302750,112.245026 
	C170.801941,112.235573 166.298721,113.373840 161.504395,114.030037 
	C161.017822,114.030685 160.823395,114.015259 160.766754,113.695946 
	C161.957703,112.304596 163.010864,111.217125 164.064026,110.129662 
	C167.726486,110.105606 171.397415,109.915695 175.049149,110.101944 
	C179.075668,110.307312 181.887833,112.473587 181.531525,116.677162 
	C181.151550,121.159866 179.858398,125.559822 179.109207,130.020309 
	C178.920685,131.142731 179.155731,132.390656 179.432648,133.523071 
	C179.772888,134.914383 180.361145,136.245056 180.696228,137.967468 
z"/>
<path fill="#8BCFD9" opacity="1.000000" stroke="none" 
	d="
M137.188995,126.153419 
	C143.556046,130.604172 151.233826,130.324966 156.346375,125.305756 
	C155.671204,127.633163 154.606277,129.783310 153.491653,132.033829 
	C154.649841,133.358932 155.819946,134.697693 156.940887,136.420532 
	C156.757965,137.301590 156.624191,137.798538 156.490433,138.295486 
	C151.477158,132.769791 143.859634,132.217621 137.644089,136.754440 
	C137.167389,136.030502 137.095291,135.510818 137.023178,134.991135 
	C137.802338,133.933228 138.581482,132.875320 139.336899,131.849640 
	C138.561905,130.015274 137.819305,128.257614 137.188995,126.153419 
z"/>
<path fill="#49AEBD" opacity="1.000000" stroke="none" 
	d="
M156.487320,138.710144 
	C156.624191,137.798538 156.757965,137.301590 157.135468,136.558105 
	C158.574509,136.210297 159.769806,136.109009 160.965118,136.007721 
	C161.132645,136.020813 161.300156,136.033905 161.719193,136.032547 
	C161.875397,140.046066 161.780075,144.074005 161.520691,148.718491 
	C161.171555,149.588516 160.992111,149.845932 160.818283,150.107254 
	C160.079285,150.033691 159.340302,149.960144 158.073395,149.697739 
	C157.324112,149.303543 157.088440,149.116196 156.815613,148.544525 
	C156.671280,147.620346 156.549789,147.098495 156.428299,146.576630 
	C156.446930,144.092682 156.465576,141.608749 156.487320,138.710144 
z"/>
<path fill="#81CBD6" opacity="1.000000" stroke="none" 
	d="
M160.982574,150.452423 
	C160.992111,149.845932 161.171555,149.588516 161.535492,149.183334 
	C168.873001,152.956039 176.115768,152.164505 180.272339,146.852005 
	C179.956329,148.385376 179.824860,150.597198 178.651398,151.721054 
	C175.703568,154.544250 164.511612,153.708801 160.982574,150.452423 
z"/>
<path fill="#8BCFD9" opacity="1.000000" stroke="none" 
	d="
M156.493088,116.174812 
	C151.596481,109.621964 145.103058,111.912971 138.409180,112.991867 
	C138.180557,112.462601 138.372375,111.926994 139.048248,111.137268 
	C140.023178,110.588356 140.514023,110.293564 141.004883,109.998779 
	C146.025848,110.655434 151.046799,111.312096 156.448242,112.407730 
	C156.913162,113.222801 156.997604,113.598892 157.005783,114.348114 
	C156.784027,115.205772 156.638550,115.690292 156.493088,116.174812 
z"/>
<path fill="#8BCFD9" opacity="1.000000" stroke="none" 
	d="
M138.967209,150.525894 
	C143.991547,150.350891 149.015900,150.175873 154.374481,150.234558 
	C154.141190,151.319595 153.573624,152.170959 153.006058,153.022324 
	C148.739090,152.976318 144.472137,152.930298 139.689270,152.442505 
	C139.104645,151.509125 139.035934,151.017502 138.967209,150.525894 
z"/>
<path fill="#4BB8C7" opacity="1.000000" stroke="none" 
	d="
M136.902512,113.927109 
	C137.250717,117.585739 137.270508,121.366119 137.159515,125.566658 
	C133.780502,122.125435 134.294296,118.120781 136.902512,113.927109 
z"/>
<path fill="#2AABBE" opacity="1.000000" stroke="none" 
	d="
M157.082062,113.974976 
	C156.997604,113.598892 156.913162,113.222801 156.798630,112.559982 
	C159.022354,111.452431 161.276154,110.631615 163.796997,109.970222 
	C163.010864,111.217125 161.957703,112.304596 160.414413,113.695190 
	C158.976868,113.990540 158.029465,113.982758 157.082062,113.974976 
z"/>
<path fill="#49B8C9" opacity="1.000000" stroke="none" 
	d="
M153.249786,153.149506 
	C153.573624,152.170959 154.141190,151.319595 154.780334,150.168945 
	C154.851913,149.869659 154.840714,149.919617 155.121033,149.851746 
	C155.880402,149.504868 156.359421,149.225861 156.838455,148.946854 
	C157.088440,149.116196 157.324112,149.303543 157.703491,149.664368 
	C156.405502,150.972137 154.949509,152.124405 153.249786,153.149506 
z"/>
<path fill="#8BCFD9" opacity="1.000000" stroke="none" 
	d="
M137.326111,140.956940 
	C137.431107,142.459015 137.536102,143.961105 137.149109,145.739883 
	C136.436127,146.003479 136.215118,145.990387 135.994110,145.977280 
	C135.999100,144.599884 136.004089,143.222473 136.334137,141.413208 
	C136.881500,140.973190 137.103790,140.965073 137.326111,140.956940 
z"/>
<path fill="#49B8C9" opacity="1.000000" stroke="none" 
	d="
M137.355103,140.592712 
	C137.103790,140.965073 136.881500,140.973190 136.326019,141.000031 
	C136.179657,139.173431 136.366486,137.328140 136.788239,135.236984 
	C137.095291,135.510818 137.167389,136.030502 137.339935,136.931610 
	C137.421616,138.284851 137.402863,139.256668 137.355103,140.592712 
z"/>
<path fill="#5DB8C9" opacity="1.000000" stroke="none" 
	d="
M198.564606,54.124474 
	C198.860229,55.174938 198.868515,56.306274 198.820312,57.864052 
	C198.601624,56.928776 198.439438,55.567059 198.564606,54.124474 
z"/>
<path fill="#49B8C9" opacity="1.000000" stroke="none" 
	d="
M135.831375,146.219574 
	C136.215118,145.990387 136.436127,146.003479 136.988983,146.029694 
	C137.339554,146.791748 137.358261,147.540680 137.252655,148.644958 
	C136.641800,148.154144 136.155212,147.307999 135.831375,146.219574 
z"/>
<path fill="#49B8C9" opacity="1.000000" stroke="none" 
	d="
M138.756470,150.403549 
	C139.035934,151.017502 139.104645,151.509125 139.250351,152.364136 
	C138.718567,152.101089 138.109802,151.474625 137.553955,150.485901 
	C137.943207,150.036774 138.256165,150.089294 138.756470,150.403549 
z"/>
<path fill="#4BB8C7" opacity="1.000000" stroke="none" 
	d="
M140.806305,109.878105 
	C140.514023,110.293564 140.023178,110.588356 139.242584,110.916351 
	C139.504486,110.552185 140.056122,110.154808 140.806305,109.878105 
z"/>
<path fill="#5DB8C9" opacity="1.000000" stroke="none" 
	d="
M26.126507,19.245632 
	C26.684290,19.079847 27.498280,19.046305 28.718403,19.060944 
	C28.210594,19.198709 27.296656,19.288292 26.126507,19.245632 
z"/>
<path fill="#5DB8C9" opacity="1.000000" stroke="none" 
	d="
M22.964672,19.292145 
	C23.022724,19.197847 23.248863,19.168219 23.818001,19.138351 
	C23.818253,19.211014 23.475508,19.283913 22.964672,19.292145 
z"/>
<path fill="#8BCFD9" opacity="1.000000" stroke="none" 
	d="
M156.815613,148.544525 
	C156.359421,149.225861 155.880402,149.504868 155.125473,149.826172 
	C155.212677,148.903412 155.575760,147.938354 156.183578,146.774963 
	C156.549789,147.098495 156.671280,147.620346 156.815613,148.544525 
z"/>
<path fill="#2AABBE" opacity="1.000000" stroke="none" 
	d="
M160.983398,135.754211 
	C159.769806,136.109009 158.574509,136.210297 157.184631,136.174011 
	C155.819946,134.697693 154.649841,133.358932 153.491653,132.033829 
	C154.606277,129.783310 155.671204,127.633163 156.635681,125.136368 
	C156.586136,124.079079 156.637024,123.368431 157.185532,122.336380 
	C158.952942,122.024803 160.222748,122.034630 161.484818,122.436974 
	C161.498062,123.876266 161.519028,124.923042 161.540009,125.969826 
	C161.957291,127.847603 162.374557,129.725372 162.928955,132.220306 
	C162.561371,132.845963 161.781540,134.173340 160.983398,135.754211 
z"/>
<path fill="#47ADC0" opacity="1.000000" stroke="none" 
	d="
M161.492554,122.044464 
	C160.222748,122.034630 158.952942,122.024803 157.301605,121.999168 
	C156.819138,120.918480 156.718185,119.853607 156.976074,118.303787 
	C157.180756,117.225037 157.026581,116.631233 156.872421,116.037422 
	C156.872421,116.037422 156.748703,116.285995 156.620895,116.230408 
	C156.638550,115.690292 156.784027,115.205772 157.005783,114.348114 
	C158.029465,113.982758 158.976868,113.990540 160.276611,113.999069 
	C160.823395,114.015259 161.017822,114.030685 161.471863,114.474304 
	C161.651840,117.283150 161.572205,119.663811 161.492554,122.044464 
z"/>
<path fill="#2AABBE" opacity="1.000000" stroke="none" 
	d="
M156.785065,116.366486 
	C157.026581,116.631233 157.180756,117.225037 157.122406,117.923248 
	C156.839172,117.583618 156.768433,117.139587 156.785065,116.366486 
z"/>
<path fill="#F0FBFC" opacity="1.000000" stroke="none" 
	d="
M161.484818,122.436974 
	C161.572205,119.663811 161.651840,117.283150 161.764008,114.458221 
	C166.298721,113.373840 170.801941,112.235573 175.302750,112.245026 
	C179.177841,112.253181 179.535828,115.936134 179.693253,118.955025 
	C179.880753,122.550858 180.710068,127.149559 176.265915,128.342056 
	C171.632141,129.585449 166.385300,130.527039 161.867645,126.183807 
	C161.519028,124.923042 161.498062,123.876266 161.484818,122.436974 
z"/>
</svg>